<mxfile host="app.diagrams.net" modified="2022-05-03T20:25:29.683Z" agent="5.0 (X11)" etag="PPORpDxN0eAKEtCfCLzb" version="17.5.0" type="github">
  <diagram id="_KwUBymQk9EiDaw-A_M_" name="Page-1">
    <mxGraphModel dx="852" dy="443" grid="1" gridSize="10" guides="1" tooltips="1" connect="1" arrows="1" fold="1" page="1" pageScale="1" pageWidth="1200" pageHeight="1600" math="0" shadow="0">
      <root>
        <mxCell id="0" />
        <mxCell id="1" parent="0" />
        <mxCell id="epupywtaCGJIACOMcI3E-88" value="" style="verticalAlign=bottom;endArrow=open;dashed=1;endSize=8;shadow=0;strokeWidth=1;fontFamily=Verdana;entryX=1.3;entryY=0.6;entryDx=0;entryDy=0;entryPerimeter=0;" edge="1" parent="1" source="epupywtaCGJIACOMcI3E-82">
          <mxGeometry relative="1" as="geometry">
            <mxPoint x="430" y="277" as="targetPoint" />
            <mxPoint x="747" y="277" as="sourcePoint" />
          </mxGeometry>
        </mxCell>
        <mxCell id="epupywtaCGJIACOMcI3E-112" value="" style="endArrow=classic;html=1;rounded=0;fontFamily=Verdana;entryX=-0.2;entryY=0.233;entryDx=0;entryDy=0;entryPerimeter=0;" edge="1" parent="1">
          <mxGeometry width="50" height="50" relative="1" as="geometry">
            <mxPoint x="588.5" y="409.98" as="sourcePoint" />
            <mxPoint x="967" y="409.98" as="targetPoint" />
          </mxGeometry>
        </mxCell>
        <mxCell id="epupywtaCGJIACOMcI3E-97" value="" style="endArrow=classic;html=1;rounded=0;fontFamily=Verdana;entryX=-0.1;entryY=0.129;entryDx=0;entryDy=0;entryPerimeter=0;exitX=0.3;exitY=0.314;exitDx=0;exitDy=0;exitPerimeter=0;" edge="1" parent="1" source="epupywtaCGJIACOMcI3E-83">
          <mxGeometry width="50" height="50" relative="1" as="geometry">
            <mxPoint x="756.5" y="238.86" as="sourcePoint" />
            <mxPoint x="1221" y="238.86" as="targetPoint" />
          </mxGeometry>
        </mxCell>
        <mxCell id="epupywtaCGJIACOMcI3E-45" value="Employee" style="shape=umlLifeline;perimeter=lifelinePerimeter;container=1;collapsible=0;recursiveResize=0;rounded=0;shadow=0;strokeWidth=1;fontFamily=Verdana;" vertex="1" parent="1">
          <mxGeometry x="20" y="90" width="100" height="520" as="geometry" />
        </mxCell>
        <mxCell id="epupywtaCGJIACOMcI3E-46" value="" style="points=[];perimeter=orthogonalPerimeter;rounded=0;shadow=0;strokeWidth=1;" vertex="1" parent="epupywtaCGJIACOMcI3E-45">
          <mxGeometry x="45" y="70" width="10" height="430" as="geometry" />
        </mxCell>
        <mxCell id="epupywtaCGJIACOMcI3E-47" value=": Home Page" style="shape=umlLifeline;perimeter=lifelinePerimeter;container=1;collapsible=0;recursiveResize=0;rounded=0;shadow=0;strokeWidth=1;fontFamily=Verdana;fontSize=12;" vertex="1" parent="1">
          <mxGeometry x="200" y="90" width="110" height="520" as="geometry" />
        </mxCell>
        <mxCell id="epupywtaCGJIACOMcI3E-48" value="" style="points=[];perimeter=orthogonalPerimeter;rounded=0;shadow=0;strokeWidth=1;" vertex="1" parent="epupywtaCGJIACOMcI3E-47">
          <mxGeometry x="50" y="80" width="10" height="340" as="geometry" />
        </mxCell>
        <mxCell id="epupywtaCGJIACOMcI3E-93" value="" style="verticalAlign=bottom;endArrow=block;entryX=0;entryY=0;shadow=0;strokeWidth=1;entryDx=0;entryDy=0;entryPerimeter=0;fontFamily=Verdana;" edge="1" parent="epupywtaCGJIACOMcI3E-47">
          <mxGeometry relative="1" as="geometry">
            <mxPoint x="-125" y="126" as="sourcePoint" />
            <mxPoint x="50" y="126" as="targetPoint" />
          </mxGeometry>
        </mxCell>
        <mxCell id="epupywtaCGJIACOMcI3E-94" value="&lt;div style=&quot;font-size: 11px;&quot;&gt;press CREATE button&lt;/div&gt;&lt;div style=&quot;font-size: 11px;&quot;&gt;for Optional Product&lt;br style=&quot;font-size: 11px;&quot;&gt;&lt;/div&gt;" style="text;html=1;align=center;verticalAlign=middle;resizable=0;points=[];autosize=1;strokeColor=none;fillColor=none;fontFamily=Verdana;fontSize=11;" vertex="1" parent="epupywtaCGJIACOMcI3E-47">
          <mxGeometry x="-110" y="96" width="140" height="30" as="geometry" />
        </mxCell>
        <mxCell id="epupywtaCGJIACOMcI3E-98" value="" style="verticalAlign=bottom;endArrow=open;dashed=1;endSize=8;shadow=0;strokeWidth=1;exitX=-0.2;exitY=0.673;exitDx=0;exitDy=0;exitPerimeter=0;fontFamily=Verdana;" edge="1" parent="epupywtaCGJIACOMcI3E-47">
          <mxGeometry relative="1" as="geometry">
            <mxPoint x="-124" y="222" as="targetPoint" />
            <mxPoint x="46" y="222.02999999999997" as="sourcePoint" />
          </mxGeometry>
        </mxCell>
        <mxCell id="epupywtaCGJIACOMcI3E-117" style="edgeStyle=orthogonalEdgeStyle;rounded=0;orthogonalLoop=1;jettySize=auto;html=1;fontFamily=Verdana;fontSize=12;exitX=1.3;exitY=0.029;exitDx=0;exitDy=0;exitPerimeter=0;" edge="1" parent="epupywtaCGJIACOMcI3E-47">
          <mxGeometry relative="1" as="geometry">
            <mxPoint x="60" y="270" as="sourcePoint" />
            <mxPoint x="60" y="291" as="targetPoint" />
            <Array as="points">
              <mxPoint x="87" y="270.14" />
              <mxPoint x="87" y="291.14" />
            </Array>
          </mxGeometry>
        </mxCell>
        <mxCell id="epupywtaCGJIACOMcI3E-118" style="edgeStyle=orthogonalEdgeStyle;rounded=0;orthogonalLoop=1;jettySize=auto;html=1;fontFamily=Verdana;fontSize=12;exitX=1.3;exitY=0.029;exitDx=0;exitDy=0;exitPerimeter=0;" edge="1" parent="epupywtaCGJIACOMcI3E-47">
          <mxGeometry relative="1" as="geometry">
            <mxPoint x="60" y="90" as="sourcePoint" />
            <mxPoint x="60" y="111" as="targetPoint" />
            <Array as="points">
              <mxPoint x="87" y="90.13999999999999" />
              <mxPoint x="87" y="111.13999999999999" />
            </Array>
          </mxGeometry>
        </mxCell>
        <mxCell id="epupywtaCGJIACOMcI3E-127" style="edgeStyle=orthogonalEdgeStyle;rounded=0;orthogonalLoop=1;jettySize=auto;html=1;fontFamily=Verdana;fontSize=12;exitX=1.3;exitY=0.029;exitDx=0;exitDy=0;exitPerimeter=0;" edge="1" parent="epupywtaCGJIACOMcI3E-47">
          <mxGeometry relative="1" as="geometry">
            <mxPoint x="60" y="384" as="sourcePoint" />
            <mxPoint x="60" y="394" as="targetPoint" />
            <Array as="points">
              <mxPoint x="87" y="384" />
              <mxPoint x="87" y="394" />
            </Array>
          </mxGeometry>
        </mxCell>
        <mxCell id="epupywtaCGJIACOMcI3E-128" style="edgeStyle=orthogonalEdgeStyle;rounded=0;orthogonalLoop=1;jettySize=auto;html=1;fontFamily=Verdana;fontSize=12;exitX=1.3;exitY=0.029;exitDx=0;exitDy=0;exitPerimeter=0;" edge="1" parent="epupywtaCGJIACOMcI3E-47">
          <mxGeometry relative="1" as="geometry">
            <mxPoint x="60" y="205" as="sourcePoint" />
            <mxPoint x="60" y="215" as="targetPoint" />
            <Array as="points">
              <mxPoint x="87" y="205" />
              <mxPoint x="87" y="215" />
            </Array>
          </mxGeometry>
        </mxCell>
        <mxCell id="epupywtaCGJIACOMcI3E-49" value="" style="verticalAlign=bottom;endArrow=block;entryX=0;entryY=0;shadow=0;strokeWidth=1;entryDx=0;entryDy=0;entryPerimeter=0;fontFamily=Verdana;" edge="1" parent="1" source="epupywtaCGJIACOMcI3E-46" target="epupywtaCGJIACOMcI3E-48">
          <mxGeometry relative="1" as="geometry">
            <mxPoint x="175" y="170" as="sourcePoint" />
          </mxGeometry>
        </mxCell>
        <mxCell id="epupywtaCGJIACOMcI3E-50" value="setup Optional Product" style="text;html=1;align=center;verticalAlign=middle;resizable=0;points=[];autosize=1;strokeColor=none;fillColor=none;fontFamily=Verdana;" vertex="1" parent="1">
          <mxGeometry x="80" y="150" width="160" height="20" as="geometry" />
        </mxCell>
        <mxCell id="epupywtaCGJIACOMcI3E-55" value="" style="verticalAlign=bottom;endArrow=open;endSize=8;shadow=0;strokeWidth=1;fontFamily=Verdana;startArrow=open;startFill=0;endFill=0;startSize=8;" edge="1" parent="1">
          <mxGeometry relative="1" as="geometry">
            <mxPoint x="810" y="275" as="targetPoint" />
            <mxPoint x="1221.5" y="275" as="sourcePoint" />
          </mxGeometry>
        </mxCell>
        <mxCell id="epupywtaCGJIACOMcI3E-56" value="CreateOptionalProduct" style="shape=umlLifeline;perimeter=lifelinePerimeter;container=1;collapsible=0;recursiveResize=0;rounded=0;shadow=0;strokeWidth=1;fontFamily=Verdana;fontSize=12;" vertex="1" parent="1">
          <mxGeometry x="350" y="90" width="150" height="520" as="geometry" />
        </mxCell>
        <mxCell id="epupywtaCGJIACOMcI3E-57" value="" style="points=[];perimeter=orthogonalPerimeter;rounded=0;shadow=0;strokeWidth=1;" vertex="1" parent="epupywtaCGJIACOMcI3E-56">
          <mxGeometry x="70" y="120" width="10" height="110" as="geometry" />
        </mxCell>
        <mxCell id="epupywtaCGJIACOMcI3E-96" value="" style="endArrow=classic;html=1;rounded=0;fontFamily=Verdana;entryX=0;entryY=0.167;entryDx=0;entryDy=0;entryPerimeter=0;" edge="1" parent="epupywtaCGJIACOMcI3E-56" target="epupywtaCGJIACOMcI3E-83">
          <mxGeometry width="50" height="50" relative="1" as="geometry">
            <mxPoint x="80" y="139.5" as="sourcePoint" />
            <mxPoint x="400" y="140" as="targetPoint" />
          </mxGeometry>
        </mxCell>
        <mxCell id="epupywtaCGJIACOMcI3E-124" value="process changes" style="text;html=1;align=center;verticalAlign=middle;resizable=0;points=[];autosize=1;strokeColor=none;fillColor=none;fontSize=11;fontFamily=Verdana;" vertex="1" parent="epupywtaCGJIACOMcI3E-56">
          <mxGeometry x="-85" y="250" width="110" height="20" as="geometry" />
        </mxCell>
        <mxCell id="epupywtaCGJIACOMcI3E-131" value="POST request" style="text;html=1;align=center;verticalAlign=middle;resizable=0;points=[];autosize=1;strokeColor=none;fillColor=none;fontSize=11;fontFamily=Verdana;" vertex="1" parent="epupywtaCGJIACOMcI3E-56">
          <mxGeometry x="-53" y="110" width="90" height="20" as="geometry" />
        </mxCell>
        <mxCell id="epupywtaCGJIACOMcI3E-132" value="POST request" style="text;html=1;align=center;verticalAlign=middle;resizable=0;points=[];autosize=1;strokeColor=none;fillColor=none;fontSize=11;fontFamily=Verdana;" vertex="1" parent="epupywtaCGJIACOMcI3E-56">
          <mxGeometry x="35" y="295" width="90" height="20" as="geometry" />
        </mxCell>
        <mxCell id="epupywtaCGJIACOMcI3E-61" value="" style="verticalAlign=bottom;endArrow=open;dashed=1;endSize=8;shadow=0;strokeWidth=1;exitX=-0.2;exitY=0.673;exitDx=0;exitDy=0;exitPerimeter=0;fontFamily=Verdana;" edge="1" parent="1">
          <mxGeometry relative="1" as="geometry">
            <mxPoint x="260" y="280" as="targetPoint" />
            <mxPoint x="418" y="280.03" as="sourcePoint" />
          </mxGeometry>
        </mxCell>
        <mxCell id="epupywtaCGJIACOMcI3E-64" value="ServicePackageService" style="shape=umlLifeline;perimeter=lifelinePerimeter;container=1;collapsible=0;recursiveResize=0;rounded=0;shadow=0;strokeWidth=1;fontFamily=Verdana;" vertex="1" parent="1">
          <mxGeometry x="890" y="90" width="160" height="520" as="geometry" />
        </mxCell>
        <mxCell id="epupywtaCGJIACOMcI3E-106" value="" style="points=[];perimeter=orthogonalPerimeter;rounded=0;shadow=0;strokeWidth=1;" vertex="1" parent="epupywtaCGJIACOMcI3E-64">
          <mxGeometry x="75" y="306" width="10" height="60" as="geometry" />
        </mxCell>
        <mxCell id="epupywtaCGJIACOMcI3E-136" value="persist" style="text;html=1;align=center;verticalAlign=middle;resizable=0;points=[];autosize=1;strokeColor=none;fillColor=none;fontSize=11;fontFamily=Verdana;" vertex="1" parent="epupywtaCGJIACOMcI3E-64">
          <mxGeometry x="85" y="130" width="50" height="20" as="geometry" />
        </mxCell>
        <mxCell id="epupywtaCGJIACOMcI3E-67" value="CreateServicePackage" style="shape=umlLifeline;perimeter=lifelinePerimeter;container=1;collapsible=0;recursiveResize=0;rounded=0;shadow=0;strokeWidth=1;fontFamily=Verdana;fontSize=12;" vertex="1" parent="1">
          <mxGeometry x="510" y="90" width="150" height="520" as="geometry" />
        </mxCell>
        <mxCell id="epupywtaCGJIACOMcI3E-68" value="" style="points=[];perimeter=orthogonalPerimeter;rounded=0;shadow=0;strokeWidth=1;" vertex="1" parent="epupywtaCGJIACOMcI3E-67">
          <mxGeometry x="70" y="280" width="10" height="130" as="geometry" />
        </mxCell>
        <mxCell id="epupywtaCGJIACOMcI3E-133" value="createProduct(name, fee)" style="text;html=1;align=center;verticalAlign=middle;resizable=0;points=[];autosize=1;strokeColor=none;fillColor=none;fontSize=11;fontFamily=Verdana;" vertex="1" parent="epupywtaCGJIACOMcI3E-67">
          <mxGeometry x="-6" y="120" width="160" height="20" as="geometry" />
        </mxCell>
        <mxCell id="epupywtaCGJIACOMcI3E-143" value="return" style="text;html=1;align=center;verticalAlign=middle;resizable=0;points=[];autosize=1;strokeColor=none;fillColor=none;fontSize=11;fontFamily=Verdana;" vertex="1" parent="epupywtaCGJIACOMcI3E-67">
          <mxGeometry x="52" y="167" width="50" height="20" as="geometry" />
        </mxCell>
        <mxCell id="epupywtaCGJIACOMcI3E-77" value="JPA &amp; DB" style="shape=umlLifeline;perimeter=lifelinePerimeter;container=1;collapsible=0;recursiveResize=0;rounded=0;shadow=0;strokeWidth=1;fontFamily=Verdana;" vertex="1" parent="1">
          <mxGeometry x="1160" y="90" width="130" height="520" as="geometry" />
        </mxCell>
        <mxCell id="epupywtaCGJIACOMcI3E-78" value="" style="points=[];perimeter=orthogonalPerimeter;rounded=0;shadow=0;strokeWidth=1;" vertex="1" parent="epupywtaCGJIACOMcI3E-77">
          <mxGeometry x="60" y="110" width="10" height="340" as="geometry" />
        </mxCell>
        <mxCell id="epupywtaCGJIACOMcI3E-110" value="" style="verticalAlign=bottom;endArrow=open;endSize=8;shadow=0;strokeWidth=1;fontFamily=Verdana;entryX=1.3;entryY=0.7;entryDx=0;entryDy=0;entryPerimeter=0;startArrow=open;startFill=0;startSize=8;" edge="1" parent="epupywtaCGJIACOMcI3E-77">
          <mxGeometry relative="1" as="geometry">
            <mxPoint x="-185" y="355.75" as="targetPoint" />
            <mxPoint x="60" y="356" as="sourcePoint" />
          </mxGeometry>
        </mxCell>
        <mxCell id="epupywtaCGJIACOMcI3E-111" value="" style="endArrow=classic;html=1;rounded=0;fontFamily=Verdana;" edge="1" parent="epupywtaCGJIACOMcI3E-77">
          <mxGeometry width="50" height="50" relative="1" as="geometry">
            <mxPoint x="-184" y="322.25" as="sourcePoint" />
            <mxPoint x="60" y="323" as="targetPoint" />
          </mxGeometry>
        </mxCell>
        <mxCell id="epupywtaCGJIACOMcI3E-119" style="edgeStyle=orthogonalEdgeStyle;rounded=0;orthogonalLoop=1;jettySize=auto;html=1;fontFamily=Verdana;fontSize=12;exitX=1.3;exitY=0.029;exitDx=0;exitDy=0;exitPerimeter=0;" edge="1" parent="epupywtaCGJIACOMcI3E-77">
          <mxGeometry relative="1" as="geometry">
            <mxPoint x="70" y="180" as="sourcePoint" />
            <mxPoint x="70" y="190" as="targetPoint" />
            <Array as="points">
              <mxPoint x="90" y="180" />
              <mxPoint x="90" y="190" />
            </Array>
          </mxGeometry>
        </mxCell>
        <mxCell id="epupywtaCGJIACOMcI3E-82" value="OptionalProductService" style="shape=umlLifeline;perimeter=lifelinePerimeter;container=1;collapsible=0;recursiveResize=0;rounded=0;shadow=0;strokeWidth=1;fontFamily=Verdana;" vertex="1" parent="1">
          <mxGeometry x="727" y="90" width="150" height="520" as="geometry" />
        </mxCell>
        <mxCell id="epupywtaCGJIACOMcI3E-83" value="" style="points=[];perimeter=orthogonalPerimeter;rounded=0;shadow=0;strokeWidth=1;" vertex="1" parent="epupywtaCGJIACOMcI3E-82">
          <mxGeometry x="70" y="130" width="10" height="60" as="geometry" />
        </mxCell>
        <mxCell id="epupywtaCGJIACOMcI3E-53" value="" style="endArrow=classic;html=1;rounded=0;fontFamily=Verdana;" edge="1" parent="1">
          <mxGeometry width="50" height="50" relative="1" as="geometry">
            <mxPoint x="260" y="220" as="sourcePoint" />
            <mxPoint x="420" y="220" as="targetPoint" />
          </mxGeometry>
        </mxCell>
        <mxCell id="epupywtaCGJIACOMcI3E-99" value="" style="verticalAlign=bottom;endArrow=block;entryX=0;entryY=0;shadow=0;strokeWidth=1;entryDx=0;entryDy=0;entryPerimeter=0;fontFamily=Verdana;" edge="1" parent="1">
          <mxGeometry relative="1" as="geometry">
            <mxPoint x="75.5" y="396" as="sourcePoint" />
            <mxPoint x="250.5" y="396" as="targetPoint" />
          </mxGeometry>
        </mxCell>
        <mxCell id="epupywtaCGJIACOMcI3E-100" value="&lt;div style=&quot;font-size: 11px&quot;&gt;press CREATE button&lt;/div&gt;&lt;div style=&quot;font-size: 11px&quot;&gt;for Service Package&lt;br style=&quot;font-size: 11px&quot;&gt;&lt;/div&gt;" style="text;html=1;align=center;verticalAlign=middle;resizable=0;points=[];autosize=1;strokeColor=none;fillColor=none;fontFamily=Verdana;fontSize=11;" vertex="1" parent="1">
          <mxGeometry x="90.5" y="366" width="140" height="30" as="geometry" />
        </mxCell>
        <mxCell id="epupywtaCGJIACOMcI3E-101" value="" style="verticalAlign=bottom;endArrow=block;entryX=0;entryY=0;shadow=0;strokeWidth=1;entryDx=0;entryDy=0;entryPerimeter=0;fontFamily=Verdana;" edge="1" parent="1">
          <mxGeometry relative="1" as="geometry">
            <mxPoint x="75.5" y="350" as="sourcePoint" />
            <mxPoint x="250.5" y="350" as="targetPoint" />
          </mxGeometry>
        </mxCell>
        <mxCell id="epupywtaCGJIACOMcI3E-102" value="setup Optional Product" style="text;html=1;align=center;verticalAlign=middle;resizable=0;points=[];autosize=1;strokeColor=none;fillColor=none;fontFamily=Verdana;fontSize=11;" vertex="1" parent="1">
          <mxGeometry x="90.5" y="330" width="140" height="20" as="geometry" />
        </mxCell>
        <mxCell id="epupywtaCGJIACOMcI3E-104" value="" style="verticalAlign=bottom;endArrow=open;dashed=1;endSize=8;shadow=0;strokeWidth=1;fontFamily=Verdana;" edge="1" parent="1">
          <mxGeometry relative="1" as="geometry">
            <mxPoint x="260" y="461" as="targetPoint" />
            <mxPoint x="580" y="461" as="sourcePoint" />
          </mxGeometry>
        </mxCell>
        <mxCell id="epupywtaCGJIACOMcI3E-105" value="" style="endArrow=classic;html=1;rounded=0;fontFamily=Verdana;entryX=-0.4;entryY=0.277;entryDx=0;entryDy=0;entryPerimeter=0;" edge="1" parent="1">
          <mxGeometry width="50" height="50" relative="1" as="geometry">
            <mxPoint x="259.5" y="406.01" as="sourcePoint" />
            <mxPoint x="581" y="406.01" as="targetPoint" />
          </mxGeometry>
        </mxCell>
        <mxCell id="epupywtaCGJIACOMcI3E-113" value="" style="verticalAlign=bottom;endArrow=open;dashed=1;endSize=8;shadow=0;strokeWidth=1;fontFamily=Verdana;entryX=1.4;entryY=0.623;entryDx=0;entryDy=0;entryPerimeter=0;exitX=0.5;exitY=0.917;exitDx=0;exitDy=0;exitPerimeter=0;" edge="1" parent="1">
          <mxGeometry relative="1" as="geometry">
            <mxPoint x="589" y="450.99" as="targetPoint" />
            <mxPoint x="965" y="451.02" as="sourcePoint" />
          </mxGeometry>
        </mxCell>
        <mxCell id="epupywtaCGJIACOMcI3E-122" value="" style="verticalAlign=bottom;endArrow=open;dashed=1;endSize=8;shadow=0;strokeWidth=1;exitX=-0.2;exitY=0.673;exitDx=0;exitDy=0;exitPerimeter=0;fontFamily=Verdana;" edge="1" parent="1">
          <mxGeometry relative="1" as="geometry">
            <mxPoint x="75" y="490" as="targetPoint" />
            <mxPoint x="245" y="490.03" as="sourcePoint" />
          </mxGeometry>
        </mxCell>
        <mxCell id="epupywtaCGJIACOMcI3E-123" value="process changes" style="text;html=1;align=center;verticalAlign=middle;resizable=0;points=[];autosize=1;strokeColor=none;fillColor=none;fontSize=11;fontFamily=Verdana;" vertex="1" parent="1">
          <mxGeometry x="265" y="160" width="110" height="20" as="geometry" />
        </mxCell>
        <mxCell id="epupywtaCGJIACOMcI3E-125" value="Notification" style="text;html=1;align=center;verticalAlign=middle;resizable=0;points=[];autosize=1;strokeColor=none;fillColor=none;fontSize=11;fontFamily=Verdana;" vertex="1" parent="1">
          <mxGeometry x="120.5" y="292" width="80" height="20" as="geometry" />
        </mxCell>
        <mxCell id="epupywtaCGJIACOMcI3E-126" value="Notification" style="text;html=1;align=center;verticalAlign=middle;resizable=0;points=[];autosize=1;strokeColor=none;fillColor=none;fontSize=11;fontFamily=Verdana;" vertex="1" parent="1">
          <mxGeometry x="120.5" y="470" width="80" height="20" as="geometry" />
        </mxCell>
        <mxCell id="epupywtaCGJIACOMcI3E-129" value="&lt;div&gt;reset &lt;br&gt;&lt;/div&gt;&lt;div&gt;form &lt;br&gt;&lt;/div&gt;&lt;div&gt;status&lt;br&gt;&lt;/div&gt;" style="text;html=1;align=center;verticalAlign=middle;resizable=0;points=[];autosize=1;strokeColor=none;fillColor=none;fontSize=11;fontFamily=Verdana;" vertex="1" parent="1">
          <mxGeometry x="280" y="282" width="50" height="40" as="geometry" />
        </mxCell>
        <mxCell id="epupywtaCGJIACOMcI3E-130" value="&lt;div&gt;reset &lt;br&gt;&lt;/div&gt;&lt;div&gt;form &lt;br&gt;&lt;/div&gt;&lt;div&gt;status&lt;br&gt;&lt;/div&gt;" style="text;html=1;align=center;verticalAlign=middle;resizable=0;points=[];autosize=1;strokeColor=none;fillColor=none;fontSize=11;fontFamily=Verdana;" vertex="1" parent="1">
          <mxGeometry x="280" y="460" width="50" height="40" as="geometry" />
        </mxCell>
        <mxCell id="epupywtaCGJIACOMcI3E-134" value="createServicePackage(servicePackage)" style="text;html=1;align=center;verticalAlign=middle;resizable=0;points=[];autosize=1;strokeColor=none;fillColor=none;fontSize=11;fontFamily=Verdana;" vertex="1" parent="1">
          <mxGeometry x="650" y="390" width="230" height="20" as="geometry" />
        </mxCell>
        <mxCell id="epupywtaCGJIACOMcI3E-137" value="close + commit" style="text;html=1;align=center;verticalAlign=middle;resizable=0;points=[];autosize=1;strokeColor=none;fillColor=none;fontSize=11;fontFamily=Verdana;" vertex="1" parent="1">
          <mxGeometry x="960" y="255" width="100" height="20" as="geometry" />
        </mxCell>
        <mxCell id="epupywtaCGJIACOMcI3E-138" value="&lt;div&gt;transaction&lt;/div&gt;&lt;div&gt;commit&lt;/div&gt;" style="text;html=1;align=center;verticalAlign=middle;resizable=0;points=[];autosize=1;strokeColor=none;fillColor=none;fontSize=11;fontFamily=Verdana;" vertex="1" parent="1">
          <mxGeometry x="1244" y="258" width="80" height="30" as="geometry" />
        </mxCell>
        <mxCell id="epupywtaCGJIACOMcI3E-139" style="edgeStyle=orthogonalEdgeStyle;rounded=0;orthogonalLoop=1;jettySize=auto;html=1;fontFamily=Verdana;fontSize=12;exitX=1.3;exitY=0.029;exitDx=0;exitDy=0;exitPerimeter=0;" edge="1" parent="1">
          <mxGeometry relative="1" as="geometry">
            <mxPoint x="1230" y="442" as="sourcePoint" />
            <mxPoint x="1230" y="452" as="targetPoint" />
            <Array as="points">
              <mxPoint x="1250" y="442" />
              <mxPoint x="1250" y="452" />
            </Array>
          </mxGeometry>
        </mxCell>
        <mxCell id="epupywtaCGJIACOMcI3E-140" value="&lt;div&gt;transaction&lt;/div&gt;&lt;div&gt;commit&lt;/div&gt;" style="text;html=1;align=center;verticalAlign=middle;resizable=0;points=[];autosize=1;strokeColor=none;fillColor=none;fontSize=11;fontFamily=Verdana;" vertex="1" parent="1">
          <mxGeometry x="1244" y="430" width="80" height="30" as="geometry" />
        </mxCell>
        <mxCell id="epupywtaCGJIACOMcI3E-141" value="persist" style="text;html=1;align=center;verticalAlign=middle;resizable=0;points=[];autosize=1;strokeColor=none;fillColor=none;fontSize=11;fontFamily=Verdana;" vertex="1" parent="1">
          <mxGeometry x="1061" y="392" width="50" height="20" as="geometry" />
        </mxCell>
        <mxCell id="epupywtaCGJIACOMcI3E-142" value="close + commit" style="text;html=1;align=center;verticalAlign=middle;resizable=0;points=[];autosize=1;strokeColor=none;fillColor=none;fontSize=11;fontFamily=Verdana;" vertex="1" parent="1">
          <mxGeometry x="1037" y="426" width="100" height="20" as="geometry" />
        </mxCell>
        <mxCell id="epupywtaCGJIACOMcI3E-144" value="return" style="text;html=1;align=center;verticalAlign=middle;resizable=0;points=[];autosize=1;strokeColor=none;fillColor=none;fontSize=11;fontFamily=Verdana;" vertex="1" parent="1">
          <mxGeometry x="732" y="431" width="50" height="20" as="geometry" />
        </mxCell>
        <mxCell id="epupywtaCGJIACOMcI3E-145" value="SC_OK" style="text;html=1;align=center;verticalAlign=middle;resizable=0;points=[];autosize=1;strokeColor=none;fillColor=none;fontSize=11;fontFamily=Verdana;" vertex="1" parent="1">
          <mxGeometry x="310" y="260" width="50" height="20" as="geometry" />
        </mxCell>
        <mxCell id="epupywtaCGJIACOMcI3E-146" value="SC_OK" style="text;html=1;align=center;verticalAlign=middle;resizable=0;points=[];autosize=1;strokeColor=none;fillColor=none;fontSize=11;fontFamily=Verdana;" vertex="1" parent="1">
          <mxGeometry x="401" y="441" width="50" height="20" as="geometry" />
        </mxCell>
        <mxCell id="epupywtaCGJIACOMcI3E-148" value="CONTROLLERS" style="text;html=1;align=center;verticalAlign=middle;resizable=0;points=[];autosize=1;strokeColor=none;fillColor=none;fontSize=11;fontFamily=Verdana;" vertex="1" parent="1">
          <mxGeometry x="451" y="60" width="110" height="20" as="geometry" />
        </mxCell>
        <mxCell id="epupywtaCGJIACOMcI3E-149" value="VIEWS" style="text;html=1;align=center;verticalAlign=middle;resizable=0;points=[];autosize=1;strokeColor=none;fillColor=none;fontSize=11;fontFamily=Verdana;" vertex="1" parent="1">
          <mxGeometry x="230" y="60" width="50" height="20" as="geometry" />
        </mxCell>
        <mxCell id="epupywtaCGJIACOMcI3E-151" value="SERVICES" style="text;html=1;align=center;verticalAlign=middle;resizable=0;points=[];autosize=1;strokeColor=none;fillColor=none;fontSize=11;fontFamily=Verdana;" vertex="1" parent="1">
          <mxGeometry x="845" y="60" width="80" height="20" as="geometry" />
        </mxCell>
      </root>
    </mxGraphModel>
  </diagram>
</mxfile>
